<svg xmlns="http://www.w3.org/2000/svg" xml:space="preserve" width="1676px" height="445px" version="1.1" style="shape-rendering:geometricPrecision; text-rendering:geometricPrecision; image-rendering:optimizeQuality; fill-rule:evenodd; clip-rule:evenodd" viewBox="0 0 473.08 125.58" xmlns:xlink="http://www.w3.org/1999/xlink" xmlns:xodm="http://www.corel.com/coreldraw/odm/2003">
  <defs>
    <style type="text/css">
      <![CDATA[
    .fil1 {fill:#2A2B61;fill-rule:nonzero}
    .fil0 {fill:#2EA8D3;fill-rule:nonzero}
   ]]>
    </style>
  </defs>
  <g id="Layer_x0020_1">
    <metadata id="CorelCorpID_0Corel-Layer"/>
    <path class="fil0" d="M55.7 74.65c-5.24,-5.23 -5.24,-13.72 0,-18.95 5.23,-5.23 13.72,-5.23 18.95,0 5.24,5.23 5.24,13.72 0,18.95 -5.23,5.24 -13.72,5.24 -18.95,0zm23.01 4.06c6.79,-6.78 7.42,-17.4 1.88,-24.89l21.19 -21.19c1.09,-1.09 1.09,-2.86 0,-3.96l-0.1 -0.1c-1.1,-1.09 -2.87,-1.09 -3.96,0l-21.19 21.19c-7.49,-5.53 -18.11,-4.91 -24.89,1.88 -6.79,6.78 -7.41,17.4 -1.88,24.89l-21.19 21.19c-1.09,1.09 -1.09,2.86 0,3.95l0.11 0.11c1.09,1.09 2.86,1.09 3.95,0l21.19 -21.19c7.49,5.53 18.11,4.91 24.89,-1.88z"/>
    <path class="fil1" d="M101.73 74.65c-5.24,-5.23 -5.24,-13.72 0,-18.95 5.23,-5.23 13.72,-5.23 18.95,0 5.24,5.23 5.24,13.72 0,18.95 -5.23,5.24 -13.72,5.24 -18.95,0zm23.01 -23.01c-7.47,-7.48 -19.6,-7.48 -27.07,0 -7.48,7.47 -7.48,19.6 0,27.07 7.47,7.48 19.6,7.48 27.07,0 7.48,-7.47 7.48,-19.6 0,-27.07z"/>
    <path class="fil1" d="M74.65 28.62c-5.23,5.24 -13.72,5.24 -18.95,0 -5.23,-5.23 -5.23,-13.72 0,-18.95 5.23,-5.23 13.72,-5.23 18.95,0 5.24,5.23 5.24,13.72 0,18.95zm-46.03 46.03c-5.23,5.24 -13.72,5.24 -18.95,0 -5.23,-5.23 -5.23,-13.72 0,-18.95 5.23,-5.23 13.72,-5.23 18.95,0 5.24,5.23 5.24,13.72 0,18.95zm50.09 -69.04c-7.47,-7.48 -19.6,-7.48 -27.07,0 -6.79,6.78 -7.39,17.38 -1.86,24.87l-19.29 19.3c-7.5,-5.53 -18.1,-4.93 -24.88,1.86 -7.48,7.47 -7.48,19.6 0,27.07 7.47,7.48 19.6,7.48 27.07,0 6.79,-6.78 7.4,-17.38 1.87,-24.87l19.29 -19.29c7.49,5.52 18.09,4.92 24.87,-1.87 7.48,-7.47 7.48,-19.59 0,-27.07z"/>
    <path class="fil1" d="M78.71 97.67c-1.12,-1.13 -2.94,-1.13 -4.06,0l-23.01 23.01c-1.12,1.12 -1.12,2.94 0,4.06 1.12,1.12 2.94,1.12 4.06,0l23.01 -23.01c1.13,-1.12 1.13,-2.94 0,-4.06z"/>
    <path class="fil1" d="M169.49 43.74l10.21 0c0.22,2.54 1.77,3.67 4.94,3.67 2.68,0 3.99,-0.81 3.99,-2.45 0,-1.4 -1,-2.13 -2.86,-2.54l-6.75 -1.5c-5.18,-1.13 -8.72,-3.76 -8.72,-9.39 0,-5.8 3.82,-10.16 13.61,-10.16 8.53,0 13.07,3.31 13.43,10.03l-9.84 0c-0.27,-1.68 -1.32,-2.5 -3.72,-2.5 -2.04,0 -3.36,0.59 -3.36,1.91 0,0.95 0.68,1.58 2.45,1.99l6.81 1.5c6.39,1.41 9.2,5.04 9.2,10.12 0,7.12 -5.62,11.07 -14.65,11.07 -8.94,0 -14.15,-4.04 -14.74,-11.75z"/>
    <path class="fil1" d="M221.16 43.19l-1.59 -4.85 -1.22 -4.22 -1.23 4.22 -1.58 4.85 5.62 0zm2.22 6.85l-10.11 0 -1.45 4.4 -10.62 0 12.16 -32.3 10.07 0 12.06 32.3 -10.66 0 -1.45 -4.4z"/>
    <polygon class="fil1" points="251.74,41.79 249.06,44.69 249.06,54.44 238.9,54.44 238.9,22.14 249.06,22.14 249.06,32.35 258.31,22.14 270.84,22.14 258.77,35.03 272.11,54.44 259.54,54.44 "/>
    <path class="fil1" d="M292.75 43.19l-1.59 -4.85 -1.22 -4.22 -1.23 4.22 -1.59 4.85 5.63 0zm2.22 6.85l-10.11 0 -1.46 4.4 -10.61 0 12.16 -32.3 10.07 0 12.06 32.3 -10.66 0 -1.45 -4.4z"/>
    <path class="fil1" d="M329.86 32.89c0,-1.81 -1.27,-3.04 -3.45,-3.04l-5.76 0 0 6.13 5.76 0c2.18,0 3.45,-1.27 3.45,-3.09zm10.39 21.55l-10.07 0 -0.64 -6.8c-0.27,-3 -1.72,-4.49 -4.49,-4.49l-4.4 0 0 11.29 -10.16 0 0 -32.3 18.82 0c6.26,0 10.71,3.82 10.71,9.44 0,3.72 -1.95,6.49 -5.49,7.89 3.09,1.09 4.54,3.36 4.95,7.26l0.77 7.71z"/>
    <polygon class="fil1" points="374.59,22.14 362.75,42.65 362.75,54.44 352.59,54.44 352.59,42.65 340.75,22.14 352.09,22.14 356.22,30.72 357.62,34.39 359.03,30.72 363.34,22.14 "/>
    <path class="fil1" d="M390.74 43.19l-1.59 -4.85 -1.22 -4.22 -1.23 4.22 -1.58 4.85 5.62 0zm2.22 6.85l-10.11 0 -1.45 4.4 -10.62 0 12.16 -32.3 10.07 0 12.07 32.3 -10.66 0 -1.46 -4.4z"/>
    <polygon class="fil0" points="197.57,85.29 188.27,85.29 188.27,108.88 178.11,108.88 178.11,85.29 168.76,85.29 168.76,76.59 197.57,76.59 "/>
    <polygon class="fil0" points="229.14,100.26 229.14,108.88 201.2,108.88 201.2,76.58 228.69,76.58 228.69,84.98 211.36,84.98 211.36,88.65 226.19,88.65 226.19,96.59 211.36,96.59 211.36,100.26 "/>
    <polygon class="fil0" points="246.52,96.23 243.84,99.13 243.84,108.88 233.68,108.88 233.68,76.58 243.84,76.58 243.84,86.79 253.1,76.58 265.62,76.58 253.55,89.47 266.89,108.88 254.32,108.88 "/>
    <polygon class="fil0" points="299.6,76.58 299.6,108.88 289.3,108.88 279.59,92.28 279.59,108.88 269.61,108.88 269.61,76.58 279.68,76.58 289.62,93.37 289.62,76.58 "/>
    <path class="fil0" d="M327.32 92.82c0,-5.89 -2.36,-8.93 -6.4,-8.93 -4.04,0 -6.4,3.04 -6.4,8.93 0,5.99 2.36,9.03 6.4,9.03 4.04,0 6.4,-3.04 6.4,-9.03zm-22.96 0.05c0,-10.52 6.72,-17.06 16.56,-17.06 9.85,0 16.56,6.54 16.56,17.06 0,10.52 -6.71,17.06 -16.56,17.06 -9.84,0 -16.56,-6.54 -16.56,-17.06z"/>
    <polygon class="fil0" points="355.08,96.23 352.41,99.13 352.41,108.88 342.24,108.88 342.24,76.58 352.41,76.58 352.41,86.79 361.66,76.58 374.18,76.58 362.11,89.47 375.45,108.88 362.89,108.88 "/>
    <polygon class="fil0" points="406.12,100.26 406.12,108.88 378.17,108.88 378.17,76.58 405.67,76.58 405.67,84.98 388.34,84.98 388.34,88.65 403.17,88.65 403.17,96.59 388.34,96.59 388.34,100.26 "/>
    <polygon class="fil0" points="440.64,76.58 440.64,108.88 430.35,108.88 420.64,92.28 420.64,108.88 410.66,108.88 410.66,76.58 420.73,76.58 430.66,93.37 430.66,76.58 "/>
    <polygon class="fil0" points="473.08,85.29 463.78,85.29 463.78,108.88 453.62,108.88 453.62,85.29 444.27,85.29 444.27,76.59 473.08,76.59 "/>
  </g>
</svg>
